<svg aria-hidden="true" style="position: absolute; width: 0; height: 0; overflow: hidden;" version="1.1" xmlns="http://www.w3.org/2000/svg" xmlns:xlink="http://www.w3.org/1999/xlink">
<defs>
<symbol id="arrow" viewBox="0 0 32 32">
<path d="M7.226 12.077c0.698-0.714 1.669-0.77 2.522 0l6.253 5.995 6.253-5.995c0.853-0.77 1.826-0.714 2.518 0 0.698 0.712 0.653 1.915 0 2.584-0.65 0.669-7.512 7.203-7.512 7.203-0.347 0.357-0.803 0.536-1.259 0.536s-0.912-0.179-1.262-0.536c0 0-6.859-6.534-7.512-7.203s-0.698-1.872 0-2.584z"></path>
</symbol>
<symbol id="basket" viewBox="0 0 32 32">
<path  d="M0.889 2.222c0-0.354 0.14-0.693 0.391-0.943s0.589-0.391 0.943-0.391h0.992c1.689 0 2.702 1.136 3.28 2.192 0.386 0.704 0.665 1.52 0.884 2.26 0.059-0.005 0.118-0.007 0.178-0.007h22.219c1.476 0 2.542 1.412 2.137 2.832l-3.25 11.394c-0.291 1.022-0.908 1.921-1.756 2.561s-1.882 0.987-2.945 0.987h-10.574c-1.071 0-2.113-0.352-2.964-1.001s-1.467-1.561-1.75-2.594l-1.351-4.928-2.24-7.552-0.002-0.014c-0.277-1.008-0.537-1.952-0.924-2.656-0.372-0.684-0.67-0.807-0.939-0.807h-0.994c-0.354 0-0.693-0.14-0.943-0.391s-0.391-0.589-0.391-0.943zM9.908 13.938l1.335 4.869c0.267 0.964 1.143 1.634 2.144 1.634h10.574c0.483 0 0.953-0.157 1.338-0.448s0.666-0.7 0.798-1.164l3.088-10.828h-21.035l1.732 5.844 0.025 0.094z"></path>
<path  d="M16 28.444c0 0.943-0.375 1.847-1.041 2.514s-1.571 1.041-2.514 1.041c-0.943 0-1.847-0.375-2.514-1.041s-1.041-1.571-1.041-2.514c0-0.943 0.375-1.847 1.041-2.514s1.571-1.041 2.514-1.041c0.943 0 1.847 0.375 2.514 1.041s1.041 1.571 1.041 2.514zM13.333 28.444c0-0.236-0.094-0.462-0.26-0.629s-0.393-0.26-0.629-0.26-0.462 0.094-0.629 0.26c-0.167 0.167-0.26 0.393-0.26 0.629s0.094 0.462 0.26 0.629c0.167 0.167 0.393 0.26 0.629 0.26s0.462-0.094 0.629-0.26c0.167-0.167 0.26-0.393 0.26-0.629z"></path>
<path  d="M28.444 28.444c0 0.943-0.375 1.847-1.041 2.514s-1.571 1.041-2.514 1.041c-0.943 0-1.847-0.375-2.514-1.041s-1.041-1.571-1.041-2.514c0-0.943 0.375-1.847 1.041-2.514s1.571-1.041 2.514-1.041c0.943 0 1.847 0.375 2.514 1.041s1.041 1.571 1.041 2.514zM25.778 28.444c0-0.236-0.094-0.462-0.26-0.629s-0.393-0.26-0.629-0.26-0.462 0.094-0.629 0.26c-0.167 0.167-0.26 0.393-0.26 0.629s0.094 0.462 0.26 0.629c0.167 0.167 0.393 0.26 0.629 0.26s0.462-0.094 0.629-0.26c0.167-0.167 0.26-0.393 0.26-0.629z"></path>
</symbol>
<symbol id="cashback" viewBox="0 0 32 32">
<path  d="M31.829 11.954c-0.119-0.128-0.291-0.194-0.466-0.194h-1.919c-0.775-3.208-2.588-6.114-5.148-8.235-2.744-2.272-6.219-3.524-9.788-3.526-0.059 0-0.118 0.013-0.168 0.043-0.135 0.083-0.183 0.243-0.132 0.379l1.714 4.573c0.046 0.122 0.162 0.203 0.293 0.203 4.052 0 7.602 2.721 8.697 6.563h-1.648c-0.175 0-0.347 0.066-0.466 0.194-0.225 0.241-0.224 0.595-0.027 0.831l4.063 4.875c0.119 0.143 0.295 0.225 0.48 0.225s0.361-0.082 0.48-0.225l4.063-4.875c0.197-0.236 0.198-0.59-0.027-0.831v0z"></path>
<path  d="M14.188 14.688c3.797 0 6.875-3.078 6.875-6.875s-3.078-6.875-6.875-6.875c-3.797 0-6.875 3.078-6.875 6.875s3.078 6.875 6.875 6.875z"></path>
<path  d="M21.063 7.812c0-3.797-3.078-6.875-6.875-6.875v13.75c3.797 0 6.875-3.078 6.875-6.875z"></path>
<path  d="M14.188 15.625c-4.308 0-7.813-3.505-7.813-7.813s3.505-7.812 7.813-7.812c4.308 0 7.812 3.505 7.812 7.812s-3.505 7.813-7.812 7.813zM14.188 1.875c-3.274 0-5.938 2.664-5.938 5.937s2.664 5.938 5.938 5.938c3.274 0 5.937-2.664 5.937-5.938s-2.664-5.937-5.937-5.937z"></path>
<path  d="M20.125 7.812c0 3.274-2.664 5.938-5.937 5.938v1.875c4.308 0 7.812-3.505 7.812-7.813s-3.505-7.812-7.812-7.812v1.875c3.274 0 5.937 2.664 5.937 5.937z"></path>
<path  d="M16.688 9.375c0-1.378-1.122-2.5-2.5-2.5-0.345 0-0.625-0.28-0.625-0.625s0.28-0.625 0.625-0.625c0.296 0 0.553 0.21 0.612 0.499 0.103 0.507 0.598 0.835 1.105 0.732s0.835-0.598 0.732-1.105c-0.17-0.837-0.755-1.509-1.512-1.817v-0.184c0-0.518-0.42-0.938-0.938-0.938s-0.938 0.42-0.938 0.938v0.183c-0.915 0.372-1.563 1.27-1.563 2.317 0 1.378 1.122 2.5 2.5 2.5 0.345 0 0.625 0.28 0.625 0.625s-0.28 0.625-0.625 0.625c-0.296 0-0.553-0.21-0.612-0.499-0.103-0.507-0.598-0.835-1.105-0.732s-0.835 0.598-0.732 1.105c0.17 0.837 0.755 1.509 1.512 1.817v0.184c0 0.518 0.42 0.938 0.938 0.938s0.938-0.42 0.938-0.938v-0.183c0.915-0.372 1.563-1.27 1.563-2.317z"></path>
<path  d="M14.188 6.875v1.875c0.345 0 0.625 0.28 0.625 0.625s-0.28 0.625-0.625 0.625v2.813c0.518 0 0.938-0.42 0.938-0.938v-0.183c0.915-0.372 1.563-1.27 1.563-2.317 0-1.378-1.122-2.5-2.5-2.5z"></path>
<path  d="M14.8 6.124c0.103 0.507 0.598 0.835 1.105 0.732s0.835-0.598 0.732-1.105c-0.17-0.837-0.755-1.509-1.512-1.817v-0.184c0-0.518-0.42-0.938-0.938-0.938v2.813c0.296 0 0.553 0.21 0.612 0.499z"></path>
<path  d="M31.604 21.934c-0.693-0.99-2.057-1.23-3.047-0.537l-6.706 4.696c-0.263 0.184-0.576 0.283-0.896 0.283h-4.956v4.375h5.35c0.962 0 1.901-0.296 2.689-0.848l7.029-4.922c0.99-0.693 1.23-2.057 0.537-3.047v0z"></path>
<path  d="M21.852 26.093c-0.263 0.184-0.576 0.283-0.896 0.283l-4.956-0.384v2.259h5.063c2.24 0 4.063-1.822 4.063-4.062 0-0.126-0.007-0.251-0.018-0.374l-3.255 2.279z"></path>
<path  d="M31.604 21.934c-0.693-0.99-2.057-1.23-3.047-0.537l-5.64 3.949c0.21-0.336 0.332-0.733 0.332-1.159 0-1.208-0.979-2.188-2.188-2.188h-5.313l-0.611-0.459c-1.218-0.913-2.727-1.416-4.249-1.416-1.283 0-2.543 0.349-3.644 1.009 0 0-1.043 0.626-1.666 0.999-0.282 0.169-0.455 0.475-0.455 0.804v6.875c0 0.518 0.42 0.938 0.938 0.938h15.287c0.962 0 1.901-0.296 2.689-0.848l7.029-4.922c0.99-0.693 1.23-2.057 0.537-3.047v0z"></path>
<path  d="M16 30.75h5.35c0.962 0 1.901-0.296 2.689-0.848l7.029-4.922c0.99-0.693 1.23-2.057 0.537-3.047s-2.057-1.23-3.047-0.537l-5.64 3.949c0.21-0.336 0.332-0.733 0.332-1.159 0-1.208-0.979-2.188-2.188-2.188h-5.063v8.75z"></path>
<path  d="M25.107 23.813l-2.189 1.533c-0.014 0.022-0.027 0.043-0.041 0.065-0.393 0.582-1.059 0.964-1.814 0.964h-6.563c-0.518 0-0.938 0.42-0.938 0.938s0.42 0.938 0.938 0.938h6.563c2.24 0 4.063-1.822 4.063-4.062 0-0.126-0.007-0.251-0.018-0.374z"></path>
<path  d="M6.063 32h-5.125c-0.518 0-0.938-0.42-0.938-0.938v-10.625c0-0.518 0.42-0.938 0.938-0.938h5.125c0.518 0 0.938 0.42 0.938 0.938v10.625c0 0.518-0.42 0.938-0.938 0.938z"></path>
<path  d="M25.107 23.813l-2.189 1.533c-0.014 0.022-0.027 0.043-0.041 0.065-0.393 0.582-1.059 0.964-1.814 0.964h-5.063v1.875h5.063c2.24 0 4.063-1.822 4.063-4.062 0-0.126-0.007-0.251-0.018-0.374z"></path>
</symbol>
<symbol id="delivery" viewBox="0 0 32 32">
<path  d="M7.836 17.988v5.233h18.392c0.525 0 0.951-0.426 0.951-0.951 0-0.462 0-3.82 0-4.281l-9.672-1.269-9.671 1.269z"></path>
<path  d="M25.276 17.734v3.584h-17.44v1.903h18.392c0.525 0 0.951-0.426 0.951-0.951 0-0.438 0-3.852 0-4.282l-1.903-0.254z"></path>
<path  d="M28.036 5.449h-17.345c-0.525 0-0.951 0.426-0.951 0.951v2.965h-6.345c-0.89 0-1.661 0.617-1.857 1.485l-0.72 3.202c-0.185 0.823-0.278 1.663-0.278 2.506v6.661h9.2c0-0.155 0-2.508 0-5.233h18.296c0.525 0 0.951-0.426 0.951-0.951v-10.635c-0-0.526-0.426-0.951-0.951-0.951v0z"></path>
<path  d="M31.524 13.902h-2.537v-1.707h1.269c0.263 0 0.476-0.213 0.476-0.476s-0.213-0.476-0.476-0.476h-1.269v-1.707h1.903c0.263 0 0.476-0.213 0.476-0.476s-0.213-0.476-0.476-0.476h-1.903v-1.707h2.537c0.263 0 0.476-0.213 0.476-0.476s-0.213-0.476-0.476-0.476h-2.666c-0.165-0.284-0.471-0.476-0.823-0.476h-0.951v10.635h-17.345c0-3.347 0-6.628 0-6.719h-1.903v8.622h-1.427c-1.387 0-2.649 0.543-3.586 1.427h-2.284v3.806h9.2c0-0.129 0-2.493 0-5.233h18.296c0.352 0 0.659-0.192 0.823-0.476h2.031c0.263 0 0.476-0.213 0.476-0.476s-0.213-0.476-0.476-0.476h-1.903v-1.707h2.537c0.263 0 0.476-0.213 0.476-0.476s-0.213-0.476-0.476-0.476v0z"></path>
<path  d="M0.476 23.22h3.482v-1.903h-3.482c-0.263 0-0.476 0.213-0.476 0.476v0.951c0 0.263 0.213 0.476 0.476 0.476z"></path>
<path  d="M7.837 11.269h-4.556l-0.905 4.022h5.46v-4.023z"></path>
<path  d="M6.047 13.388h-3.243l-0.428 1.903h5.46v-4.023h-1.789v2.12z"></path>
<path  d="M22.581 26.55c1.839 0 3.33-1.491 3.33-3.33s-1.491-3.33-3.33-3.33c-1.839 0-3.33 1.491-3.33 3.33s1.491 3.33 3.33 3.33z"></path>
<path  d="M23.262 19.961c-0.39 0.721-0.281 1.641 0.328 2.251l-2.018 2.018c-0.61-0.61-1.529-0.719-2.251-0.328 0.315 1.511 1.657 2.649 3.26 2.649 1.836 0 3.33-1.494 3.33-3.33-0-1.603-1.139-2.945-2.649-3.26v0z"></path>
<path  d="M22.58 24.648c0.788 0 1.427-0.639 1.427-1.427s-0.639-1.427-1.427-1.427c-0.788 0-1.427 0.639-1.427 1.427s0.639 1.427 1.427 1.427z"></path>
<path  d="M6.409 26.55c1.839 0 3.33-1.491 3.33-3.33s-1.491-3.33-3.33-3.33-3.33 1.491-3.33 3.33c0 1.839 1.491 3.33 3.33 3.33z"></path>
<path  d="M7.090 19.961c-0.39 0.721-0.281 1.641 0.328 2.251l-2.018 2.018c-0.609-0.61-1.529-0.719-2.251-0.328 0.315 1.511 1.657 2.649 3.26 2.649 1.836 0 3.33-1.494 3.33-3.33 0-1.603-1.138-2.945-2.649-3.26v0z"></path>
<path  d="M6.409 24.648c0.788 0 1.427-0.639 1.427-1.427s-0.639-1.427-1.427-1.427c-0.788 0-1.427 0.639-1.427 1.427s0.639 1.427 1.427 1.427z"></path>
<path  d="M14.553 10.767v0.476h0.603c0.263 0 0.476 0.213 0.476 0.476s-0.213 0.476-0.476 0.476h-0.603v0.951c0 0.263-0.213 0.476-0.476 0.476s-0.476-0.213-0.476-0.476v-2.854c0-0.263 0.213-0.476 0.476-0.476h1.459c0.263 0 0.476 0.213 0.476 0.476s-0.213 0.476-0.476 0.476l-0.983-0z"></path>
<path  d="M19.086 12.811c0.185 0.187 0.184 0.488-0.003 0.673-0.093 0.092-0.214 0.138-0.335 0.138-0.122 0-0.245-0.047-0.338-0.141l-0.804-0.811h-0.254v0.476c0 0.263-0.213 0.476-0.476 0.476s-0.476-0.213-0.476-0.476v-2.854c0-0.263 0.213-0.476 0.476-0.476h0.928c0.782 0 1.419 0.64 1.419 1.427 0 0.464-0.222 0.877-0.564 1.138l0.426 0.43zM18.273 11.243c0-0.262-0.21-0.476-0.468-0.476h-0.452v0.951h0.452c0.258 0 0.468-0.213 0.468-0.476z"></path>
<path  d="M22.173 13.145c0 0.263-0.213 0.476-0.476 0.476h-1.459c-0.263 0-0.476-0.213-0.476-0.476v-2.854c0-0.263 0.213-0.476 0.476-0.476h1.459c0.263 0 0.476 0.213 0.476 0.476s-0.213 0.476-0.476 0.476h-0.983v0.476h0.603c0.263 0 0.476 0.213 0.476 0.476s-0.213 0.476-0.476 0.476h-0.603v0.476h0.983c0.263-0 0.476 0.213 0.476 0.476v0z"></path>
<path  d="M25.124 13.145c0 0.263-0.213 0.476-0.476 0.476h-1.459c-0.263 0-0.476-0.213-0.476-0.476v-2.854c0-0.263 0.213-0.476 0.476-0.476h1.459c0.263 0 0.476 0.213 0.476 0.476s-0.213 0.476-0.476 0.476h-0.983v0.476h0.603c0.263 0 0.476 0.213 0.476 0.476s-0.213 0.476-0.476 0.476h-0.603v0.476h0.983c0.263-0 0.476 0.213 0.476 0.476v0z"></path>
</symbol>
<symbol id="grid-view" viewBox="0 0 32 32">
<path  d="M12.444 3.556h-7.111c-0.982 0-1.778 0.796-1.778 1.778v7.111c0 0.982 0.796 1.778 1.778 1.778h7.111c0.982 0 1.778-0.796 1.778-1.778v-7.111c0-0.982-0.796-1.778-1.778-1.778z"></path>
<path  d="M26.667 3.556h-7.111c-0.982 0-1.778 0.796-1.778 1.778v7.111c0 0.982 0.796 1.778 1.778 1.778h7.111c0.982 0 1.778-0.796 1.778-1.778v-7.111c0-0.982-0.796-1.778-1.778-1.778z"></path>
<path  d="M12.444 17.778h-7.111c-0.982 0-1.778 0.796-1.778 1.778v7.111c0 0.982 0.796 1.778 1.778 1.778h7.111c0.982 0 1.778-0.796 1.778-1.778v-7.111c0-0.982-0.796-1.778-1.778-1.778z"></path>
<path  d="M26.667 17.778h-7.111c-0.982 0-1.778 0.796-1.778 1.778v7.111c0 0.982 0.796 1.778 1.778 1.778h7.111c0.982 0 1.778-0.796 1.778-1.778v-7.111c0-0.982-0.796-1.778-1.778-1.778z"></path>
</symbol>
<symbol id="heart" viewBox="0 0 32 32">
<path  d="M28.434 4.739c-1.618-1.618-3.763-2.602-6.045-2.773s-4.549 0.483-6.39 1.843c-1.939-1.442-4.352-2.096-6.754-1.83s-4.613 1.432-6.19 3.263c-1.576 1.831-2.4 4.192-2.306 6.606s1.1 4.703 2.815 6.406l11.352 11.352c0.142 0.143 0.31 0.256 0.496 0.334s0.385 0.117 0.586 0.117 0.4-0.040 0.586-0.117c0.186-0.077 0.354-0.191 0.496-0.334l11.352-11.352c0.888-0.887 1.592-1.941 2.073-3.1s0.728-2.402 0.728-3.658c0-1.255-0.248-2.498-0.728-3.658s-1.185-2.213-2.073-3.1zM26.286 16.107l-10.286 10.271-10.286-10.271c-0.906-0.91-1.524-2.068-1.775-3.327s-0.124-2.566 0.364-3.754c0.488-1.188 1.316-2.206 2.381-2.925s2.317-1.108 3.602-1.118c1.716 0.004 3.36 0.689 4.571 1.905 0.142 0.143 0.31 0.256 0.496 0.334s0.385 0.117 0.586 0.117c0.201 0 0.4-0.040 0.586-0.117s0.354-0.191 0.496-0.334c1.247-1.081 2.858-1.647 4.507-1.585s3.212 0.749 4.374 1.92 1.835 2.741 1.884 4.39c0.049 1.649-0.531 3.255-1.622 4.493h0.122z"></path>
</symbol>
<symbol id="list-view" viewBox="0 0 32 32">
<path  d="M5 23h-4c-0.265 0-0.52 0.105-0.707 0.293s-0.293 0.442-0.293 0.707v4c0 0.265 0.105 0.519 0.293 0.707s0.442 0.293 0.707 0.293h4c0.265 0 0.52-0.105 0.707-0.293s0.293-0.442 0.293-0.707v-4c0-0.265-0.105-0.52-0.293-0.707s-0.442-0.293-0.707-0.293zM5 3h-4c-0.265 0-0.52 0.105-0.707 0.293s-0.293 0.442-0.293 0.707v4c0 0.265 0.105 0.52 0.293 0.707s0.442 0.293 0.707 0.293h4c0.265 0 0.52-0.105 0.707-0.293s0.293-0.442 0.293-0.707v-4c0-0.265-0.105-0.52-0.293-0.707s-0.442-0.293-0.707-0.293v0zM5 13h-4c-0.265 0-0.52 0.105-0.707 0.293s-0.293 0.442-0.293 0.707v4c0 0.265 0.105 0.52 0.293 0.707s0.442 0.293 0.707 0.293h4c0.265 0 0.52-0.105 0.707-0.293s0.293-0.442 0.293-0.707v-4c0-0.265-0.105-0.52-0.293-0.707s-0.442-0.293-0.707-0.293zM31 24h-20c-0.265 0-0.52 0.105-0.707 0.293s-0.293 0.442-0.293 0.707v2c0 0.265 0.105 0.519 0.293 0.707s0.442 0.293 0.707 0.293h20c0.265 0 0.519-0.105 0.707-0.293s0.293-0.442 0.293-0.707v-2c0-0.265-0.105-0.52-0.293-0.707s-0.442-0.293-0.707-0.293zM31 4h-20c-0.265 0-0.52 0.105-0.707 0.293s-0.293 0.442-0.293 0.707v2c0 0.265 0.105 0.52 0.293 0.707s0.442 0.293 0.707 0.293h20c0.265 0 0.519-0.105 0.707-0.293s0.293-0.442 0.293-0.707v-2c0-0.265-0.105-0.52-0.293-0.707s-0.442-0.293-0.707-0.293v0zM31 14h-20c-0.265 0-0.52 0.105-0.707 0.293s-0.293 0.442-0.293 0.707v2c0 0.265 0.105 0.52 0.293 0.707s0.442 0.293 0.707 0.293h20c0.265 0 0.519-0.105 0.707-0.293s0.293-0.442 0.293-0.707v-2c0-0.265-0.105-0.52-0.293-0.707s-0.442-0.293-0.707-0.293z"></path>
</symbol>
<symbol id="logo" viewBox="0 0 107 32">
<path  d="M24.315 2.258v28.599h-5.634v-11.618h-12.784v11.618h-5.634v-28.599h5.634v11.541h12.784v-11.541h5.634zM39.143 31.323c-2.072 0-3.834-0.389-5.285-1.166-1.425-0.777-2.513-1.852-3.264-3.225s-1.127-2.953-1.127-4.741c0-1.71 0.44-3.251 1.321-4.624s2.059-2.461 3.536-3.264c1.477-0.829 3.121-1.243 4.935-1.243 2.435 0 4.43 0.712 5.984 2.137 1.58 1.399 2.603 3.432 3.070 6.101l-13.211 4.197-1.205-2.953 9.559-3.225-1.127 0.505c-0.207-0.674-0.583-1.256-1.127-1.749-0.518-0.518-1.308-0.777-2.37-0.777-0.803 0-1.515 0.194-2.137 0.583-0.596 0.363-1.062 0.894-1.399 1.593-0.311 0.674-0.466 1.477-0.466 2.409 0 1.062 0.194 1.956 0.583 2.681 0.389 0.699 0.92 1.23 1.593 1.593s1.425 0.544 2.254 0.544c0.596 0 1.166-0.104 1.71-0.311 0.57-0.207 1.127-0.479 1.671-0.816l2.409 4.041c-0.907 0.518-1.891 0.933-2.953 1.243-1.036 0.311-2.021 0.466-2.953 0.466zM52.267 30.857v-30.658h5.44v30.658h-5.44zM62.020 19.317l7.694 11.541h-6.334l-4.935-8.432 3.575-3.109zM56.075 26.155l-0.544-5.168 10.258-7.538 3.303 2.914-13.017 9.792zM75.072 6.416h5.44v7.383h4.119v4.235h-4.119v12.823h-5.44v-12.823h-2.642v-4.235h2.642v-7.383zM87.45 22.153c0-1.736 0.401-3.29 1.205-4.663 0.829-1.373 1.982-2.448 3.458-3.225 1.477-0.803 3.173-1.205 5.090-1.205 1.943 0 3.627 0.402 5.051 1.205 1.425 0.777 2.513 1.852 3.264 3.225 0.777 1.373 1.166 2.927 1.166 4.663s-0.389 3.303-1.166 4.702c-0.751 1.373-1.839 2.461-3.264 3.264s-3.135 1.205-5.129 1.205c-1.865 0-3.536-0.363-5.013-1.088-1.451-0.725-2.591-1.774-3.419-3.147s-1.243-3.018-1.243-4.935zM92.929 22.192c0 0.881 0.181 1.684 0.544 2.409 0.363 0.699 0.855 1.256 1.477 1.671s1.321 0.622 2.098 0.622c0.855 0 1.593-0.207 2.215-0.622s1.101-0.971 1.438-1.671c0.337-0.725 0.505-1.528 0.505-2.409 0-0.907-0.168-1.71-0.505-2.409s-0.816-1.256-1.438-1.671-1.36-0.622-2.215-0.622c-0.777 0-1.477 0.207-2.098 0.622s-1.114 0.971-1.477 1.671c-0.363 0.699-0.544 1.503-0.544 2.409z"></path>
</symbol>
<symbol id="mail" viewBox="0 0 37 32">
<path  d="M31.111 1.778h-24.889c-1.414 0-2.771 0.562-3.771 1.562s-1.562 2.357-1.562 3.771v17.778c0 1.415 0.562 2.771 1.562 3.771s2.357 1.562 3.771 1.562h24.889c1.414 0 2.771-0.562 3.771-1.562s1.562-2.357 1.562-3.771v-17.778c0-1.415-0.562-2.771-1.562-3.771s-2.357-1.562-3.771-1.562v0zM6.222 5.333h24.889c0.471 0 0.924 0.187 1.257 0.521s0.521 0.786 0.521 1.257l-14.222 8.676-14.222-8.676c0-0.472 0.187-0.924 0.521-1.257s0.786-0.521 1.257-0.521v0zM32.889 24.889c0 0.471-0.187 0.924-0.521 1.257s-0.786 0.521-1.257 0.521h-24.889c-0.471 0-0.924-0.187-1.257-0.521s-0.521-0.786-0.521-1.257v-13.724l13.298 8.124c0.27 0.156 0.577 0.238 0.889 0.238s0.619-0.082 0.889-0.238l13.369-8.124v13.724z"></path>
</symbol>
<symbol id="phone" viewBox="0 0 32 32">
<path  d="M22.088 29.332h0.037c0.704 0 1.369-0.277 1.873-0.781l3.616-3.616c0.124-0.124 0.222-0.271 0.289-0.432s0.102-0.335 0.102-0.51c0-0.175-0.035-0.348-0.102-0.51s-0.165-0.309-0.289-0.432l-5.333-5.333c-0.124-0.124-0.271-0.222-0.432-0.289s-0.335-0.102-0.51-0.102c-0.175 0-0.349 0.035-0.51 0.102s-0.309 0.165-0.432 0.289l-2.125 2.125c-0.985-0.293-2.824-0.96-3.989-2.125s-1.832-3.004-2.125-3.989l2.125-2.125c0.124-0.124 0.222-0.271 0.289-0.432s0.102-0.335 0.102-0.51c0-0.175-0.035-0.348-0.102-0.51s-0.165-0.309-0.289-0.432l-5.333-5.333c-0.255-0.241-0.592-0.375-0.943-0.375s-0.688 0.134-0.943 0.375l-3.615 3.616c-0.507 0.507-0.792 1.203-0.781 1.913 0.031 1.899 0.533 8.493 5.731 13.691s11.792 5.699 13.691 5.729v0zM8.007 7.211l3.448 3.448-1.724 1.724c-0.157 0.156-0.272 0.35-0.335 0.562s-0.072 0.437-0.026 0.654c0.032 0.153 0.815 3.789 3.028 6.003s5.849 2.996 6.003 3.028c0.217 0.046 0.442 0.037 0.654-0.026s0.406-0.178 0.562-0.336l1.724-1.724 3.448 3.448-2.675 2.673c-1.664-0.028-7.357-0.475-11.831-4.949-4.488-4.488-4.923-10.201-4.949-11.832l2.673-2.673zM26.665 14.665h2.667c0-6.84-5.164-11.999-12.013-11.999v2.667c5.416 0 9.347 3.924 9.347 9.332v0z"></path>
<path  d="M17.332 10.667c2.804 0 4 1.196 4 4h2.667c0-4.3-2.367-6.667-6.667-6.667v2.667z"></path>
</symbol>
<symbol id="premium" viewBox="0 0 32 32">
<path  d="M7.85 17.988l-3.86 10.946 3.884-0.038 4.789-10.908h-4.813z"></path>
<path  d="M12.662 17.988l-3.014 11.518 3.036 2.494 3.316-9.702v-4.31h-3.337z"></path>
<path  d="M11.615 17.988l-3.741 10.908 1.021-0.010 0.754 0.62 3.95-11.518h-1.985z"></path>
<path  d="M24.151 17.988l3.86 10.946-3.884-0.038-4.79-10.908h4.813z"></path>
<path  d="M19.338 17.988l3.014 11.518-3.036 2.494-3.316-9.702v-4.31h3.337z"></path>
<path  d="M20.386 17.988l3.741 10.908-1.021-0.010-0.754 0.62-3.95-11.518h1.985z"></path>
<path  d="M16 0.938l-0.668 10.408 0.668 10.012c5.639 0 10.21-4.571 10.21-10.21s-4.571-10.21-10.21-10.21v0z"></path>
<path  d="M5.789 11.149c0 5.639 4.571 10.21 10.21 10.21v-20.421c-5.639 0-10.21 4.571-10.21 10.21v0z"></path>
<path  d="M27.148 11.149c0-6.148-5.001-11.149-11.149-11.149l-0.668 0.667 0.668 1.21c5.112 0 9.272 4.159 9.272 9.272s-4.159 9.272-9.272 9.272l-0.668 0.939 0.668 0.939c6.148 0 11.149-5.001 11.149-11.149v0z"></path>
<path  d="M16 20.42c-5.112 0-9.272-4.159-9.272-9.272s4.159-9.272 9.272-9.272v-1.877c-6.148 0-11.149 5.001-11.149 11.149s5.001 11.149 11.149 11.149v-1.877z"></path>
<path  d="M21.611 7.431l-2.923 0.956-2.688-2.274-0.667 4.567 0.667 4.714h5.611v-7.962z"></path>
<path  d="M16 6.113l-2.688 2.274-2.923-0.956v7.962h5.611v-9.281z"></path>
</symbol>
<symbol id="search" viewBox="0 0 32 32">
<path d="M31.558 29.394l-5.653-5.608c2.194-2.736 3.257-6.209 2.97-9.705s-1.903-6.748-4.515-9.089c-2.612-2.341-6.022-3.592-9.528-3.496s-6.842 1.532-9.322 4.012c-2.48 2.48-3.916 5.816-4.012 9.322s1.155 6.916 3.496 9.528c2.341 2.612 5.593 4.228 9.089 4.515s6.969-0.775 9.705-2.97l5.608 5.608c0.142 0.143 0.31 0.256 0.496 0.334s0.385 0.117 0.586 0.117 0.4-0.040 0.586-0.117c0.186-0.077 0.354-0.191 0.496-0.334 0.275-0.284 0.428-0.664 0.428-1.059s-0.154-0.775-0.428-1.059zM15.238 25.905c-2.11 0-4.172-0.626-5.926-1.798s-3.121-2.838-3.929-4.787c-0.807-1.949-1.019-4.094-0.607-6.163s1.427-3.97 2.919-5.462c1.492-1.492 3.392-2.508 5.462-2.919s4.214-0.2 6.163 0.607c1.949 0.807 3.615 2.175 4.787 3.929s1.798 3.816 1.798 5.926c0 2.829-1.124 5.542-3.124 7.543s-4.714 3.124-7.543 3.124z"></path>
</symbol>
<symbol id="search-plus" viewBox="0 0 32 32">
<path  d="M20 13.333h-4v-4c0-0.354-0.14-0.693-0.39-0.943s-0.589-0.391-0.943-0.391c-0.354 0-0.693 0.14-0.943 0.391s-0.391 0.589-0.391 0.943v4h-4c-0.354 0-0.693 0.14-0.943 0.391s-0.391 0.589-0.391 0.943c0 0.354 0.14 0.693 0.391 0.943s0.589 0.391 0.943 0.391h4v4c0 0.354 0.14 0.693 0.391 0.943s0.589 0.391 0.943 0.391c0.354 0 0.693-0.14 0.943-0.391s0.39-0.589 0.39-0.943v-4h4c0.354 0 0.693-0.14 0.943-0.391s0.39-0.589 0.39-0.943c0-0.354-0.14-0.693-0.39-0.943s-0.589-0.391-0.943-0.391zM28.947 27.053l-4.947-4.907c1.92-2.394 2.85-5.433 2.598-8.492s-1.666-5.905-3.951-7.953c-2.286-2.048-5.269-3.143-8.337-3.059s-5.987 1.34-8.157 3.51c-2.17 2.17-3.426 5.089-3.51 8.157s1.011 6.051 3.059 8.337c2.048 2.285 4.894 3.699 7.953 3.951s6.097-0.678 8.492-2.598l4.907 4.907c0.124 0.125 0.271 0.224 0.434 0.292s0.337 0.103 0.513 0.103 0.35-0.035 0.513-0.103c0.162-0.068 0.31-0.167 0.434-0.292 0.24-0.249 0.375-0.581 0.375-0.927s-0.134-0.678-0.375-0.927zM14.667 24c-1.846 0-3.65-0.547-5.185-1.573s-2.731-2.483-3.438-4.189-0.891-3.582-0.531-5.393c0.36-1.81 1.249-3.474 2.554-4.779s2.968-2.194 4.779-2.554c1.81-0.36 3.687-0.175 5.393 0.531s3.163 1.903 4.189 3.438c1.026 1.535 1.573 3.339 1.573 5.185 0 2.475-0.983 4.849-2.734 6.6s-4.124 2.734-6.6 2.734z"></path>
</symbol>
<symbol id="support" viewBox="0 0 32 32">
<path  d="M30.157 11.858l0.479-0.864c0.127-0.23 0.044-0.52-0.186-0.647-0.191-0.106-0.424-0.066-0.57 0.083-2.086-6.193-7.911-10.428-14.538-10.428-4.098 0-7.951 1.596-10.848 4.494s-4.494 6.75-4.494 10.848c0 3.488 1.141 6.775 3.299 9.505 2.093 2.648 5.039 4.557 8.295 5.375 0.699 0.176 1.423 0.284 2.214 0.332 0.010 0.001 0.020 0.001 0.029 0.001 0.25 0 0.459-0.195 0.475-0.447 0.016-0.262-0.184-0.488-0.446-0.504-0.731-0.044-1.398-0.144-2.039-0.305-6.402-1.608-10.873-7.347-10.873-13.957 0-7.935 6.455-14.39 14.39-14.39 6.196 0 11.645 3.947 13.617 9.726-0.195-0.034-0.398 0.055-0.499 0.238-0.127 0.23-0.044 0.52 0.186 0.647l0.85 0.471c0.025 0.015 0.19 0.11 0.389 0.046 0.174-0.055 0.254-0.193 0.271-0.224v0z"></path>
<path  d="M23.438 4.972l-18.404 18.404c-0.186 0.186-0.186 0.487 0 0.673 0.093 0.093 0.215 0.139 0.337 0.139s0.244-0.046 0.337-0.139l18.404-18.404c0.186-0.186 0.186-0.487 0-0.673s-0.487-0.186-0.673 0v0z"></path>
<path  d="M6.091 8.091c-1.951 0-2.614 2.54-1.585 2.54 0.263 0 0.476-0.213 0.476-0.476 0-0.612 0.498-1.109 1.109-1.109 1.021 0 1.5 1.272 0.729 1.946l-2.628 2.297c-0.33 0.288-0.125 0.834 0.313 0.834h3.173c0.263 0 0.476-0.216 0.476-0.478s-0.213-0.476-0.476-0.476h-1.9l1.67-1.458c1.43-1.248 0.548-3.619-1.356-3.619v0z"></path>
<path  d="M12.944 11.899h-0.791l-0.002-3.331c-0-0.263-0.213-0.476-0.476-0.476s-0.476 0.213-0.476 0.476v3.331h-1.707c0.010-0.028 0.787-2.261 0.795-2.29 0.169-0.642-0.707-0.871-0.902-0.309l-1.014 2.921c-0.107 0.309 0.123 0.632 0.45 0.632h2.379c-0 0.815-0.041 0.949 0.14 1.13 0.299 0.3 0.814 0.085 0.814-0.338v-0.792h0.791c0.263 0 0.476-0.213 0.476-0.476 0-0.273-0.219-0.478-0.476-0.478v0z"></path>
<path  d="M20.677 15.93c-0.087-0.14-0.24-0.225-0.404-0.225h-2.915c-0.263 0-0.475 0.213-0.475 0.475s0.213 0.475 0.475 0.475h2.146l-2.193 4.393c-0.117 0.235-0.022 0.52 0.213 0.638 0.068 0.034 0.141 0.050 0.212 0.050 0.175 0 0.343-0.096 0.426-0.263l2.536-5.080c0.074-0.148 0.066-0.322-0.021-0.463v0z"></path>
<path  d="M27.815 13.452c-0.82 0.149-1.415 0.863-1.415 1.696v1.565c0 0.833 0.596 1.547 1.416 1.696l0.19 0.035c-0.867 4.655-4.439 8.371-9.018 9.449-0.117-0.854-0.846-1.491-1.708-1.491h-2.067c-0.862 0-1.592 0.637-1.708 1.491-0.339 2.484 1.572 4.219 3.65 4.1 8.011-0.458 14.42-6.885 14.84-14.914 0.114-2.185-1.794-4.060-4.18-3.626z"></path>
<path  d="M17.155 31.992c8.011-0.458 14.42-6.885 14.84-14.914 0.035-0.667-0.12-1.305-0.418-1.858-0.813 0.182-1.438 0.886-1.483 1.758-0.37 7.071-5.979 12.709-13.047 13.113-0.871 0.050-1.571 0.678-1.75 1.49 0.559 0.299 1.2 0.448 1.859 0.411v0z"></path>
</symbol>
<symbol id="user" viewBox="0 0 32 32">
<path  d="M16 4c0.989 0 1.956 0.293 2.778 0.843s1.463 1.33 1.842 2.244c0.378 0.914 0.477 1.919 0.285 2.889s-0.669 1.861-1.368 2.56-1.59 1.175-2.56 1.368c-0.97 0.193-1.975 0.094-2.889-0.285s-1.695-1.019-2.244-1.842c-0.549-0.822-0.843-1.789-0.843-2.778 0-1.326 0.527-2.598 1.464-3.536s2.209-1.464 3.536-1.464zM16 2c-1.384 0-2.738 0.411-3.889 1.18s-2.048 1.862-2.578 3.141c-0.53 1.279-0.668 2.687-0.398 4.044s0.937 2.605 1.916 3.584c0.979 0.979 2.226 1.646 3.584 1.916s2.765 0.131 4.044-0.398c1.279-0.53 2.372-1.427 3.141-2.578s1.18-2.505 1.18-3.889c0-1.857-0.737-3.637-2.050-4.95s-3.093-2.050-4.95-2.050z"></path>
<path  d="M26 30h-2v-5c0-0.657-0.129-1.307-0.381-1.913s-0.62-1.158-1.084-1.622c-0.464-0.464-1.016-0.833-1.622-1.084s-1.257-0.381-1.913-0.381h-6c-1.326 0-2.598 0.527-3.536 1.464s-1.464 2.21-1.464 3.536v5h-2v-5c0-1.857 0.737-3.637 2.050-4.95s3.093-2.050 4.95-2.050h6c1.857 0 3.637 0.738 4.95 2.050s2.050 3.093 2.050 4.95v5z"></path>
</symbol>
<symbol id="filter" viewBox="0 0 22 28">
<path d="M21.922 4.609c0.156 0.375 0.078 0.812-0.219 1.094l-7.703 7.703v11.594c0 0.406-0.25 0.766-0.609 0.922-0.125 0.047-0.266 0.078-0.391 0.078-0.266 0-0.516-0.094-0.703-0.297l-4-4c-0.187-0.187-0.297-0.438-0.297-0.703v-7.594l-7.703-7.703c-0.297-0.281-0.375-0.719-0.219-1.094 0.156-0.359 0.516-0.609 0.922-0.609h20c0.406 0 0.766 0.25 0.922 0.609z"></path>
</symbol>
<symbol id="shopping" viewBox="0 0 28 28">
<path d="M27.453 22l0.547 4.891c0.031 0.281-0.063 0.562-0.25 0.781-0.187 0.203-0.469 0.328-0.75 0.328h-26c-0.281 0-0.562-0.125-0.75-0.328-0.187-0.219-0.281-0.5-0.25-0.781l0.547-4.891h26.906zM26 8.891l1.344 12.109h-26.688l1.344-12.109c0.063-0.5 0.484-0.891 1-0.891h4v2c0 1.109 0.891 2 2 2s2-0.891 2-2v-2h6v2c0 1.109 0.891 2 2 2s2-0.891 2-2v-2h4c0.516 0 0.938 0.391 1 0.891zM20 6v4c0 0.547-0.453 1-1 1s-1-0.453-1-1v-4c0-2.203-1.797-4-4-4s-4 1.797-4 4v4c0 0.547-0.453 1-1 1s-1-0.453-1-1v-4c0-3.313 2.688-6 6-6s6 2.688 6 6z"></path>
</symbol>
<symbol id="hour" viewBox="0 0 32 32">
<path d="M22.781 16c4.305-2.729 7.219-7.975 7.219-14 0-0.677-0.037-1.345-0.109-2h-27.783c-0.072 0.655-0.109 1.323-0.109 2 0 6.025 2.914 11.271 7.219 14-4.305 2.729-7.219 7.975-7.219 14 0 0.677 0.037 1.345 0.109 2h27.783c0.072-0.655 0.109-1.323 0.109-2 0-6.025-2.914-11.271-7.219-14zM5 30c0-5.841 2.505-10.794 7-12.428v-3.143c-4.495-1.634-7-6.587-7-12.428v0h22c0 5.841-2.505 10.794-7 12.428v3.143c4.495 1.634 7 6.587 7 12.428h-22zM19.363 20.925c-2.239-1.27-2.363-2.918-2.363-3.918v-2.007c0-1 0.119-2.654 2.367-3.927 1.203-0.699 2.244-1.761 3.033-3.073h-12.799c0.79 1.313 1.832 2.376 3.036 3.075 2.239 1.27 2.363 2.918 2.363 3.918v2.007c0 1-0.119 2.654-2.367 3.927-2.269 1.318-3.961 3.928-4.472 7.073h15.677c-0.511-3.147-2.204-5.758-4.475-7.075z"></path>
</symbol>
<symbol id="home" viewBox="0 0 32 32">
<path d="M32 18.451l-16-12.42-16 12.42v-5.064l16-12.42 16 12.42zM28 18v12h-8v-8h-8v8h-8v-12l12-9z"></path>
</symbol>
</defs>
</svg>
